name C:\Users\r0593348\3dpredictsim\Results\Batchsim_tmt_linear\Pog_s1_tmt_aCst_d02_k250_ig24_act.mot
datacolumns 128
datarows 4
range 0.62928748 0.66704473
endheader
time	pelvis_tilt	pelvis_list	pelvis_rotation	pelvis_tx	pelvis_ty	pelvis_tz	hip_flexion_l	hip_adduction_l	hip_rotation_l	hip_flexion_r	hip_adduction_r	hip_rotation_r	knee_angle_l	knee_angle_r	ankle_angle_l	ankle_angle_r	subtalar_angle_l	subtalar_angle_r	tmt_angle_l	tmt_angle_r	mtp_angle_l	mtp_angle_r	lumbar_extension	lumbar_bending	lumbar_rotation	arm_flex_l	arm_add_l	arm_rot_l	arm_flex_r	arm_add_r	arm_rot_r	elbow_flex_l	elbow_flex_r	pro_sup_l	pro_sup_r	glut_med1_l/activation	glut_med2_l/activation	glut_med3_l/activation	glut_min1_l/activation	glut_min2_l/activation	glut_min3_l/activation	semimem_l/activation	semiten_l/activation	bifemlh_l/activation	bifemsh_l/activation	sar_l/activation	add_long_l/activation	add_brev_l/activation	add_mag1_l/activation	add_mag2_l/activation	add_mag3_l/activation	tfl_l/activation	pect_l/activation	grac_l/activation	glut_max1_l/activation	glut_max2_l/activation	glut_max3_l/activation	iliacus_l/activation	psoas_l/activation	quad_fem_l/activation	gem_l/activation	peri_l/activation	rect_fem_l/activation	vas_med_l/activation	vas_int_l/activation	vas_lat_l/activation	med_gas_l/activation	lat_gas_l/activation	soleus_l/activation	tib_post_l/activation	flex_dig_l/activation	flex_hal_l/activation	tib_ant_l/activation	per_brev_l/activation	per_long_l/activation	per_tert_l/activation	ext_dig_l/activation	ext_hal_l/activation	ercspn_l/activation	intobl_l/activation	extobl_l/activation	glut_med1_r/activation	glut_med2_r/activation	glut_med3_r/activation	glut_min1_r/activation	glut_min2_r/activation	glut_min3_r/activation	semimem_r/activation	semiten_r/activation	bifemlh_r/activation	bifemsh_r/activation	sar_r/activation	add_long_r/activation	add_brev_r/activation	add_mag1_r/activation	add_mag2_r/activation	add_mag3_r/activation	tfl_r/activation	pect_r/activation	grac_r/activation	glut_max1_r/activation	glut_max2_r/activation	glut_max3_r/activation	iliacus_r/activation	psoas_r/activation	quad_fem_r/activation	gem_r/activation	peri_r/activation	rect_fem_r/activation	vas_med_r/activation	vas_int_r/activation	vas_lat_r/activation	med_gas_r/activation	lat_gas_r/activation	soleus_r/activation	tib_post_r/activation	flex_dig_r/activation	flex_hal_r/activation	tib_ant_r/activation	per_brev_r/activation	per_long_r/activation	per_tert_r/activation	ext_dig_r/activation	ext_hal_r/activation	ercspn_r/activation	intobl_r/activation	extobl_r/activation	
          0.62928748	         -2.92871165	          1.22480072	         -8.67129830	          0.78660935	          0.86243214	          0.00206554	         31.89638422	          0.57715886	         -0.46141402	        -13.92550353	         -2.38937893	          7.75268322	        -14.71804784	        -20.05335854	         10.22363386	        -18.00244603	          1.81376915	         16.03445295	          0.11497011	          3.70925819	         -0.07172602	         33.33055084	          0.33422121	          1.34152344	          2.98149845	        -12.00948674	        -13.63646067	         12.35266000	          3.43454487	        -13.48606383	         17.69885478	         16.68029794	         44.48722667	         86.51662706	         86.51662706	          0.09107575	          0.05000031	          0.06048820	          0.05000008	          0.05000012	          0.05000140	          0.22307696	          0.10794963	          0.18402242	          0.06048834	          0.05000030	          0.05000023	          0.12769215	          0.17688990	          0.16605694	          0.13881837	          0.06048825	          0.05000138	          0.14321479	          0.07317574	          0.07317629	          0.13412026	          0.05132560	          0.05061469	          0.17593696	          0.05000043	          0.05000027	          0.05000000	          0.05000002	          0.05000003	          0.05000002	          0.06048814	          0.06048815	          0.06048812	          0.06388965	          0.08378258	          0.06664012	          0.44943722	          0.28737881	          0.20751042	          0.13423118	          0.48515701	          0.26189950	          0.05000000	          0.12591182	          0.11573032	          0.11233470	          0.06048817	          0.08415597	          0.14399459	          0.11270501	          0.08852062	          0.05000062	          0.05000006	          0.05000006	          0.05000003	          0.07317657	          0.17673853	          0.05000277	          0.05000029	          0.05000081	          0.05000036	          0.18029585	          0.05000275	          0.05000028	          0.05000230	          0.05000214	          0.05000294	          0.38615146	          0.58206884	          0.09941244	          0.05000065	          0.08210897	          0.35966696	          0.11277006	          0.11687750	          0.11265111	          0.12491575	          0.19779832	          0.05695861	          0.13597600	          0.16936965	          0.17443897	          0.11390866	          0.48827000	          0.38516688	          0.48342892	          0.45842037	          0.24785744	          0.05000000	          0.05000005	          0.06679525	
          0.64187323	         -2.92956317	          1.15154274	         -8.87614177	          0.80693069	          0.86070972	          0.00177011	         31.28265671	          0.86891382	         -0.28762623	        -14.06401810	         -2.61304549	          7.40782606	        -15.03928327	        -21.23364512	          9.55098781	        -21.25656205	          1.37799268	         16.28675508	          0.10965494	          3.20250123	         -0.06219376	         34.66671018	          0.59426064	          1.21265833	          3.08933511	        -13.48966181	        -13.61811873	         12.42227468	          2.99193384	        -13.54137628	         17.94013525	         16.69310524	         45.58506070	         86.51662706	         86.51662706	          0.07528401	          0.05000012	          0.05000012	          0.05000023	          0.05000017	          0.05000008	          0.18439733	          0.08923210	          0.15211451	          0.05000019	          0.05000007	          0.08852585	          0.16637712	          0.28670051	          0.20675126	          0.13912798	          0.05000019	          0.05000096	          0.11838263	          0.06048806	          0.06048825	          0.15288486	          0.05000002	          0.05000017	          0.46529571	          0.11160099	          0.09069890	          0.07317626	          0.22707927	          0.22945118	          0.20344954	          0.05000001	          0.05000002	          0.05000000	          0.05281174	          0.06925543	          0.05508531	          0.63418258	          0.30438890	          0.17152998	          0.52923031	          0.58840665	          0.42912465	          0.05000000	          0.10407979	          0.09566367	          0.09285683	          0.05000014	          0.06956422	          0.11902717	          0.09316296	          0.07317200	          0.05000184	          0.07267921	          0.07317627	          0.05000068	          0.06048841	          0.23540753	          0.20963168	          0.25100709	          0.07318073	          0.08399456	          0.14903410	          0.05000054	          0.06258246	          0.05000055	          0.05000049	          0.05604954	          0.31919609	          0.48114309	          0.14537417	          0.07317666	          0.07528452	          0.29730378	          0.09321673	          0.09661198	          0.09311841	          0.10325643	          0.16350178	          0.06372628	          0.11239892	          0.14000241	          0.14419275	          0.25616688	          0.48321750	          0.36738848	          0.68239994	          0.60051282	          0.20488139	          0.05000000	          0.07317628	          0.08270626	
          0.65445898	         -2.92512749	          1.08453763	         -9.04391550	          0.82738897	          0.85845098	          0.00150110	         30.50756150	          1.13714176	         -0.03759838	        -13.99028196	         -2.80172488	          7.04392084	        -15.81421037	        -22.83472809	          8.81993099	        -23.85617665	          0.92391019	         16.41391716	         -0.09881905	          2.39979958	         -0.13416545	         34.57966965	          0.85210734	          1.06240419	          3.17831467	        -14.93228509	        -13.61601199	         12.59218798	          2.49702115	        -13.61177170	         18.11121537	         16.64784372	         46.67833848	         86.51662706	         86.51662706	          0.26148941	          0.26491317	          0.39571078	          0.05000010	          0.05000008	          0.05000010	          0.15964129	          0.12485261	          0.13988730	          0.05000004	          0.05000060	          0.07317630	          0.13752881	          0.23698918	          0.22178800	          0.18139730	          0.05000003	          0.06049737	          0.11983963	          0.05000003	          0.05000012	          0.19125807	          0.05371699	          0.05000008	          0.38461742	          0.09225036	          0.27997809	          0.06048812	          0.18770567	          0.18966631	          0.16817314	          0.06048795	          0.06048809	          0.06048811	          0.06048809	          0.06048813	          0.06048813	          0.54291231	          0.35916705	          0.20102856	          0.43746634	          0.62567215	          0.51133411	          0.05000000	          0.08603359	          0.07907641	          0.07675629	          0.06048817	          0.06048815	          0.09838889	          0.07700935	          0.06048830	          0.07440162	          0.06048806	          0.06048822	          0.05000003	          0.05000030	          0.19458989	          0.18402873	          0.20748463	          0.06049202	          0.06943068	          0.12319298	          0.05793472	          0.06048854	          0.06048819	          0.06048822	          0.06048821	          0.26385022	          0.45996802	          0.12016756	          0.06048855	          0.06223084	          0.24575385	          0.09895422	          0.07991946	          0.08919090	          0.08535267	          0.13515197	          0.10502155	          0.09290991	          0.11572719	          0.11919096	          0.23050286	          0.45012380	          0.32752056	          0.82730191	          0.78277524	          0.48556588	          0.07011447	          0.06048814	          0.06836571	
          0.66704473	         -2.91771688	          1.02705637	         -9.17153373	          0.84772023	          0.85588364	          0.00122674	         29.63298038	          1.37942406	          0.23848610	        -13.68482556	         -2.97589966	          6.67660064	        -16.62640470	        -24.87242193	          8.17386108	        -25.86069599	          0.44366564	         16.40666404	         -0.01353185	          1.73779286	         -0.17248840	         32.54157253	          1.08908484	          0.89222666	          3.25004915	        -16.26994361	        -13.62089567	         12.88264720	          1.99764016	        -13.68576290	         18.22231578	         16.49971604	         47.70852016	         86.51662706	         86.51662706	          0.36036864	          0.42432183	          0.50501784	          0.20881485	          0.22760345	          0.33347034	          0.13196085	          0.10320429	          0.11563204	          0.07317626	          0.05000012	          0.06048817	          0.11368250	          0.19589734	          0.23583703	          0.19524500	          0.05000004	          0.05000773	          0.09906065	          0.27976881	          0.21713532	          0.22074981	          0.05000001	          0.05000001	          0.31792806	          0.07625502	          0.23143254	          0.05000000	          0.15515915	          0.23179063	          0.16522489	          0.05000000	          0.05000000	          0.05000000	          0.05000000	          0.05000002	          0.05000002	          0.71635548	          0.36981355	          0.18414780	          0.69411725	          0.69794432	          0.52759113	          0.06733142	          0.08852591	          0.06536524	          0.10706725	          0.05000006	          0.05000003	          0.16980780	          0.07317646	          0.05000022	          0.11506606	          0.05000003	          0.05000010	          0.05000007	          0.06048817	          0.17270215	          0.15211974	          0.17150859	          0.05000326	          0.05739202	          0.10183301	          0.06048786	          0.05000038	          0.05000022	          0.05000015	          0.05000009	          0.22634055	          0.44465661	          0.09933154	          0.05000039	          0.05144057	          0.22852320	          0.08179647	          0.10709543	          0.08967520	          0.07055325	          0.11171778	          0.08681173	          0.07680013	          0.09566109	          0.09852427	          0.24525848	          0.41838242	          0.30215885	          0.77653187	          0.88188206	          0.40137291	          0.10290231	          0.05000001	          0.05651168	
